<?xml version="1.0" encoding="utf-8"?>
<svg version="1.1" xmlns="http://www.w3.org/2000/svg" xmlns:xlink="http://www.w3.org/1999/xlink" x="0px" y="0px"
	 viewBox="0 0 2000 2000" xml:space="preserve">
<g>
	<g>
		<g>
			<path fill="#AF8C62" d="M323.43,1034.26l-8.76,12.31h8.76v108.35c-16.49-3.06-32.09-8.02-46.73-14.87V956.12h46.73V1034.26z"/>
			<path fill="#AF8C62" d="M386.67,929.79l-8.2,10.58h8.2v217.26c-6.99,0.68-14.14,1-21.42,1c-8.64,0-17.07-0.44-25.27-1.32v-110.73
				h9.58l-9.58-12.31V921.21h46.7V929.79z"/>
			<path fill="#AF8C62" d="M451.09,886.3v254.11c-14.75,6.88-30.3,11.81-46.7,14.78V940.37h8.96l-8.96-11.55V886.3H451.09z"/>
		</g>
	</g>
	<path fill="#333333" d="M508.57,805.19c-40.14-40.38-88.1-60.57-143.85-60.57c-36.85,0-71.21,9.26-103.12,27.74
		c-31.91,18.48-56.98,43.52-75.2,75.14c-18.25,31.62-27.36,66.3-27.36,104c0,56.25,19.57,104.85,58.72,145.76
		c17.63,18.43,37.26,32.68,58.95,42.79c14.63,6.85,30.24,11.81,46.73,14.87v-75.47c-14.96-4.88-28.95-12.64-41.88-23.19
		c-1.65-1.35-3.26-2.7-4.85-4.14c-28.07-24.92-42.11-58.04-42.11-99.3c0-39.11,12.43-71.35,37.29-96.74
		c24.86-25.36,55.54-38.06,92.01-38.06c36.12,0,66.8,13.02,92.01,39c25.21,26.01,37.82,57.75,37.82,95.27
		c0,37.7-12.52,69.41-37.56,95.13c-1.67,1.7-3.35,3.38-5.08,4.97c-14.02,13.08-29.56,22.33-46.7,27.8v75
		c16.4-2.97,31.94-7.91,46.7-14.78c21.13-9.84,40.53-23.72,58.28-41.52c39.61-39.85,59.39-88.52,59.39-146.06
		C568.75,894.79,548.68,845.57,508.57,805.19z"/>
	<path fill="#AF8C62" d="M339.97,1083.72v73.59c8.2,0.88,16.63,1.32,25.27,1.32c7.29,0,14.43-0.32,21.42-1v-73.29
		c-6.91,1.12-14.05,1.67-21.42,1.67C356.55,1086.02,348.11,1085.25,339.97,1083.72z"/>
	<path fill="#333333" d="M704.09,857.17v32.16c13.22-13.22,27.51-23.13,42.88-29.74c15.36-6.61,31.8-9.92,49.31-9.92
		c38.05,0,70.38,14.38,97,43.14c26.62,28.76,39.93,65.65,39.93,110.67c0,43.41-13.76,79.72-41.27,108.93
		c-27.51,29.21-60.12,43.81-97.81,43.81c-16.79,0-32.43-3-46.9-8.98c-14.47-5.98-28.85-15.76-43.14-29.34v137.47h-72.62V857.17
		H704.09z M781,917.2c-23.05,0-42.16,7.86-57.35,23.58c-15.19,15.72-22.78,36.27-22.78,61.63c0,25.91,7.59,46.85,22.78,62.84
		c15.18,15.99,34.3,23.98,57.35,23.98c22.33,0,41.13-8.13,56.41-24.39c15.27-16.25,22.91-36.98,22.91-62.17
		c0-25.01-7.5-45.51-22.51-61.5C822.8,925.19,803.87,917.2,781,917.2z"/>
	<path fill="#333333" d="M1002.61,749.71h73.16v107.46h43.41v62.97h-43.41v228.58h-73.16V920.14H965.1v-62.97h37.51V749.71z"/>
	<path fill="#333333" d="M1204.58,754.54h73.11l91.38,274.94l92.21-274.94h73.06l66.13,394.19h-72.56l-42.27-248.95l-83.74,248.95
		h-66.12l-83-248.95l-43.28,248.95h-73.16L1204.58,754.54z"/>
	<g>
		<path fill="#AF8C62" d="M1724.19,779.75l-17.95,17.75c-11.36-12.01-24.6-18.02-39.72-18.02c-13.18,0-24.22,4.37-33.11,13.11
			c-8.9,8.74-13.34,19.36-13.34,31.86c0,12.92,4.62,23.88,13.85,32.86c9.23,8.98,20.62,13.47,34.17,13.47
			c8.81,0,16.23-1.85,22.28-5.55c6.04-3.7,10.92-9.49,14.62-17.38h-38.77v-23.94h67.35l0.18,5.64c0,11.71-3.04,22.81-9.1,33.31
			c-6.07,10.5-13.92,18.51-23.57,24.03c-9.65,5.52-20.96,8.28-33.95,8.28c-13.9,0-26.29-3.02-37.18-9.06
			c-10.89-6.04-19.51-14.64-25.85-25.8c-6.34-11.16-9.51-23.21-9.51-36.13c0-17.72,5.86-33.13,17.57-46.24
			c13.89-15.59,31.98-23.39,54.24-23.39c11.65,0,22.54,2.15,32.67,6.46C1707.63,764.64,1716,770.89,1724.19,779.75z"/>
		<path fill="#AF8C62" d="M1803.64,754.54h25.4v86.19h11.92v23.57h-11.92v27.49h-24.94V864.3h-58.43v-23.57L1803.64,754.54z
			 M1804.11,840.73v-44.87l-30.58,44.87H1804.11z"/>
	</g>
</g>
</svg>
