<?xml version="1.0" encoding="utf-8"?>
<!-- Generator: Adobe Illustrator 27.3.1, SVG Export Plug-In . SVG Version: 6.00 Build 0)  -->
<svg version="1.1" id="Layer_1" xmlns="http://www.w3.org/2000/svg" xmlns:xlink="http://www.w3.org/1999/xlink" x="0px" y="0px"
	 viewBox="0 0 2000 2000" style="enable-background:new 0 0 2000 2000;" xml:space="preserve">


<g>
	<g>
		<g>
			<path fill="#AF8C62" d="M322.08,1034.33l-8.77,12.34h8.77v108.57c-16.52-3.06-32.15-8.04-46.82-14.9v-184.3h46.82V1034.33z"/>
			<path fill="#AF8C62" d="M385.44,929.65l-8.22,10.6h8.22v217.7c-7.01,0.68-14.16,1-21.47,1c-8.66,0-17.11-0.44-25.32-1.33v-110.95
				h9.6l-9.6-12.34V921.05h46.79V929.65z"/>
			<path fill="#AF8C62" d="M449.99,886.07v254.62c-14.78,6.89-30.36,11.84-46.79,14.81V940.25h8.98l-8.98-11.57v-42.61H449.99z"/>
		</g>
	</g>
	<path fill="#CFCFCF" d="M507.59,804.8c-40.22-40.46-88.28-60.69-144.14-60.69c-36.93,0-71.35,9.28-103.33,27.8
		c-31.98,18.52-57.1,43.61-75.35,75.29c-18.29,31.68-27.41,66.43-27.41,104.21c0,56.36,19.61,105.06,58.83,146.05
		c17.67,18.46,37.34,32.74,59.07,42.87c14.66,6.86,30.3,11.84,46.82,14.9v-75.62c-14.99-4.89-29-12.66-41.96-23.23
		c-1.65-1.35-3.27-2.71-4.86-4.15c-28.12-24.97-42.2-58.16-42.2-99.5c0-39.19,12.46-71.5,37.37-96.94
		c24.91-25.41,55.65-38.13,92.2-38.13c36.19,0,66.93,13.04,92.2,39.08c25.26,26.06,37.9,57.86,37.9,95.46
		c0,37.78-12.54,69.55-37.63,95.32c-1.68,1.71-3.36,3.39-5.09,4.98c-14.05,13.1-29.62,22.38-46.79,27.86v75.15
		c16.43-2.97,32.01-7.92,46.79-14.81c21.17-9.86,40.61-23.76,58.39-41.61c39.69-39.93,59.51-88.69,59.51-146.35
		C567.89,894.58,547.78,845.26,507.59,804.8z"/>
	<path fill="#AF8C62" d="M338.65,1083.89v73.73c8.21,0.88,16.67,1.33,25.32,1.33c7.3,0,14.46-0.32,21.47-1v-73.44
		c-6.92,1.12-14.08,1.68-21.47,1.68C355.26,1086.19,346.81,1085.42,338.65,1083.89z"/>
	<path fill="#CFCFCF" d="M703.5,856.88v32.22c13.24-13.24,27.56-23.18,42.96-29.8c15.39-6.62,31.86-9.94,49.41-9.94
		c38.13,0,70.52,14.41,97.2,43.23c26.67,28.82,40.01,65.78,40.01,110.89c0,43.5-13.79,79.88-41.35,109.15
		c-27.57,29.27-60.24,43.9-98.01,43.9c-16.83,0-32.49-3-46.99-9c-14.5-5.99-28.91-15.8-43.23-29.4v137.74h-72.77v-399H703.5z
		 M780.56,917.03c-23.09,0-42.25,7.88-57.46,23.63c-15.22,15.75-22.82,36.34-22.82,61.76c0,25.96,7.61,46.95,22.82,62.97
		c15.21,16.02,34.37,24.03,57.46,24.03c22.38,0,41.22-8.14,56.52-24.43c15.3-16.29,22.96-37.06,22.96-62.29
		c0-25.06-7.52-45.6-22.55-61.62C822.45,925.04,803.47,917.03,780.56,917.03z"/>
	<path fill="#CFCFCF" d="M1002.62,749.21h73.3v107.67h43.5v63.1h-43.5v229.04h-73.3V919.98h-37.59v-63.1h37.59V749.21z"/>
	<path fill="#CFCFCF" d="M1204.99,754.05h73.25l91.56,275.49l92.39-275.49h73.21l66.26,394.98h-72.71l-42.35-249.45l-83.91,249.45
		h-66.26l-83.17-249.45l-43.36,249.45h-73.3L1204.99,754.05z"/>
	<g>
		<path fill="#AF8C62" d="M1725.64,779.31l-17.98,17.78c-11.38-12.04-24.64-18.06-39.8-18.06c-13.21,0-24.27,4.38-33.18,13.13
			c-8.91,8.75-13.37,19.4-13.37,31.92c0,12.95,4.63,23.93,13.88,32.92c9.25,9,20.66,13.5,34.24,13.5c8.83,0,16.27-1.85,22.32-5.56
			c6.06-3.71,10.94-9.51,14.65-17.42h-38.85v-23.99h67.49l0.18,5.65c0,11.73-3.04,22.86-9.12,33.38
			c-6.08,10.52-13.95,18.54-23.62,24.08s-21.01,8.3-34.02,8.3c-13.92,0-26.34-3.03-37.25-9.07c-10.91-6.05-19.55-14.67-25.9-25.85
			c-6.35-11.19-9.53-23.26-9.53-36.2c0-17.75,5.87-33.2,17.6-46.33c13.92-15.62,32.04-23.44,54.35-23.44
			c11.67,0,22.59,2.16,32.74,6.47C1709.04,764.17,1717.43,770.43,1725.64,779.31z"/>
		<path fill="#AF8C62" d="M1805.25,754.05h25.45v86.36h11.95v23.62h-11.95v27.54h-24.99v-27.54h-58.55v-23.62L1805.25,754.05z
			 M1805.71,840.41v-44.96l-30.64,44.96H1805.71z"/>
	</g>
</g>
</svg>
