<svg id="Layer_1" data-name="Layer 1" xmlns="http://www.w3.org/2000/svg" viewBox="0 0 447.35 361.24"><defs><style>.cls-1{fill:#da1515;}.cls-2{fill:#2346d4;}.cls-3{fill:#fff;}</style></defs><g id="Layer_2_copy" data-name="Layer 2 copy"><g id="Layer_3_copy" data-name="Layer 3 copy"><path class="cls-1" d="M488.66,154.61c.41,3.07,1.06,6,1.17,8.95.43,11.81.43,23.58-3.49,35s-11.28,20.3-20.89,27.58c-20.31,15.39-41.84,29-63.1,42.92-15,9.9-30.1,19.8-43.81,31.55a125.08,125.08,0,0,0-28.22,34.14c-4.26,7.66-7.94,15.64-12,23.39-1,1.82-.56,2.85.8,4.05,5.72,5.06,11.37,10.18,17.07,15.25,5.31,4.75,10.65,9.46,16.56,14.7L327,409.24c-4.59-5.65-8.77-10.84-13-16-6.63-8.07-13.34-16.08-19.92-24.2a7.3,7.3,0,0,1-1.65-4c-.2-5.12-.15-10.25,0-15.37a4.2,4.2,0,0,1,1.2-2.8q11.66-10.15,23.48-20.12c8.12-6.86,16.33-13.6,24.47-20.44,6.6-5.53,13.12-11.16,19.72-16.69,5.9-4.95,11.66-10.12,17.86-14.66,5.15-3.78,7.36-8.59,8.11-14.73s2.18-12.09,3.51-18.09a6.91,6.91,0,0,1,2.25-3.69c13.17-10.2,26.55-20.14,39.63-30.44,15.49-12.19,30.47-25,44-39.38C480.72,164.18,484.53,159.4,488.66,154.61Z" transform="translate(-42.66 -68.25)"/><path class="cls-1" d="M485.05,226.23c-3.74,18-9.41,34.32-20.63,48.25A75.32,75.32,0,0,1,440.34,294c-16,8.36-32.08,16.62-48.52,24.06-17.39,7.88-35.24,14.76-52.9,22.07a7.22,7.22,0,0,1-2.9.58c1.79-2.12,3.53-4.29,5.39-6.35,9.73-10.79,19.67-21.36,31.76-29.62,11.69-8,23.27-16.12,35-24,14.65-9.85,29.65-19.19,44.14-29.33,10.68-7.49,20.72-15.91,31-23.92C483.72,227.18,484.11,226.91,485.05,226.23Z" transform="translate(-42.66 -68.25)"/><path class="cls-1" d="M332.19,356.09c40.65-16,80.86-31.95,118.84-53.32-1.76,2.69-3.42,5.45-5.29,8.07a149.25,149.25,0,0,1-29.47,30.4c-18,14.15-38.22,23.84-59.55,31.56a3.81,3.81,0,0,1-3.12-.47C346.54,367.09,339.57,361.72,332.19,356.09Z" transform="translate(-42.66 -68.25)"/></g><path class="cls-2" d="M242.07,423.87l-24-9.41c2.2-2.8,4.06-5.21,6-7.59,9.08-11.3,18.2-22.57,27.22-33.92a7.09,7.09,0,0,0,1.39-3.83c.31-7.89.41-15.78.67-23.66a4.4,4.4,0,0,0-1.53-4c-7.07-6.05-14.06-12.2-21.09-18.31-1.18-1-2.39-2-4.09-3.47,4-.3,7.49-.57,11-.81,4.52-.32,9-.57,13.56-.93,1.63-.13,2.94-.06,4.25,1.33a17,17,0,0,0,20.32,3.19A16.31,16.31,0,0,0,283.57,304c-.53-2.15-.25-3.35,1.61-4.83,13.58-10.79,27-21.73,40.48-32.69,6.3-5.13,12.42-10.49,18.77-15.55,4.1-3.27,5.62-7.44,5.68-12.48.13-9.74.34-19.48.68-29.22a5.53,5.53,0,0,1,1.59-3.68c6.17-5.15,12.5-10.1,18.77-15.13,12.41-10,25.09-19.63,37.15-30a236.7,236.7,0,0,0,34.06-36.26A207.5,207.5,0,0,0,464.51,88.7c1.73-3.6,3.15-7.36,5-11.66,2.2,4.51,4.38,8.58,6.19,12.81,4.35,10.16,7.13,20.76,7.1,31.84,0,12.23-3.44,23.31-11.81,32.74a298.41,298.41,0,0,1-31.57,30.32c-12.64,10.61-25.65,20.77-38.63,31-5.78,4.54-11.8,8.79-17.85,13-3.07,2.11-3.3,5.24-3.85,8.34-1.25,7-2.49,14-3.66,21-.58,3.51-2.48,6-5.2,8.22q-21.17,17.43-42.09,35.14c-15.66,13.3-31.19,26.75-46.72,40.19a4,4,0,0,0-1.21,2.75c.1,8.56.2,17.13.64,25.68.08,1.59,1.42,3.26,2.51,4.63,10.33,13,20.74,25.9,31.11,38.84a5.4,5.4,0,0,1,.34,1.19L291.22,424c-4-10.57-7.77-20.57-11.55-30.57l-.79.25c2.3,10.4,4.61,20.8,7,31.62-6.41,1.46-12.52,3.13-18.75,4.11-2.41.38-5.1-.73-7.61-1.35-3.88-1-7.72-2.09-11.88-3.22,2.39-10.54,4.72-20.81,7.06-31.09l-.78-.29C250,403.35,246.15,413.33,242.07,423.87Z" transform="translate(-42.66 -68.25)"/><path class="cls-2" d="M249.66,300.22c-7.85.57-15.34,1.15-22.84,1.58a2.74,2.74,0,0,1-2-1.39,24.5,24.5,0,0,0-18.56-13.84,23.55,23.55,0,0,0-11.66.88,3.69,3.69,0,0,1-4.17-1c-4.92-4.45-9.94-8.79-15-13.1a4.18,4.18,0,0,1-1.54-4.32c1.56-11.5-4.78-23.12-16.41-26.75a3.66,3.66,0,0,1-3-3.61c-.13-1.25-.4-2.47-.56-3.72a7.28,7.28,0,0,0-3.07-5.21c-13.23-10.12-26.38-20.35-39.6-30.47-1.73-1.33-2.48-2.51-1.85-4.83,1-3.54,1.35-7.23,2.18-10.81a4.69,4.69,0,0,1,1.77-2.65c10.74-6.95,9.8-22.12.7-28.12s-22.77-2-25.52,9.45c-1.49,6.25-.15,11.83,4.5,16.37,1.88,1.83.45,3.54.47,5.9-2.66-2.26-5.06-4.05-7.17-6.13-8.49-8.35-17.24-16.48-25.22-25.3-6.78-7.51-10.1-16.83-10.68-27-1-17.64,4.26-33.6,13-49.08,1.87,4.13,3.52,8,5.33,11.73a199.32,199.32,0,0,0,27.07,41.48,292.24,292.24,0,0,0,40,39.27c12.27,10,24.91,19.49,37.39,29.21a14.35,14.35,0,0,0,1.38,1.09c6.68,4.12,8.37,10.08,8,17.73-.47,8.42.37,16.92.92,25.36a7.75,7.75,0,0,0,2.32,4.81c5.61,5,11.39,9.86,17.22,14.63,11,9,22.14,17.9,33.21,26.85C240.63,292.81,245,296.41,249.66,300.22Z" transform="translate(-42.66 -68.25)"/><path class="cls-2" d="M201.87,355.93c-7.65,5.81-14.89,11.35-22.21,16.78a3.4,3.4,0,0,1-2.72.22,248.14,248.14,0,0,1-38.52-17.38,165.62,165.62,0,0,1-38.78-30.08,143.57,143.57,0,0,1-17.76-23.3c23,13.36,47.28,24.1,72,34.53-2.89,5.85-3.3,11.72-.15,17.38a15.11,15.11,0,0,0,9.19,7.39c9.77,2.89,17.33-1.29,21.73-12.26Z" transform="translate(-42.66 -68.25)"/><path class="cls-2" d="M114.45,274.06c-5.82.4-10.6,2.66-13.73,7.58s-3.29,10-1.46,15.49c-23.64-6.81-49.44-42.89-50.69-70.34,10.66,8.13,21.25,16.58,32.25,24.47S103.14,266.47,114.45,274.06Z" transform="translate(-42.66 -68.25)"/><path class="cls-2" d="M72.2,229c-3.85-3-7.63-5.86-11.28-8.88-10.1-8.34-14.53-19.68-16.91-32.09a93,93,0,0,1-.91-24.77c.23-2.95.8-5.87,1.29-9.35a162.05,162.05,0,0,0,23.43,25.87c7,6.3,14.15,12.33,21.18,18.55a4,4,0,0,1,1.3,2.57c0,.53-1,1.4-1.78,1.6-12,3.32-18.38,13.39-16.14,25.66A3.93,3.93,0,0,1,72.2,229Z" transform="translate(-42.66 -68.25)"/><path class="cls-2" d="M204.61,336.34c2.2-1.26,3.77-.88,5.3,1.29,2.76,3.9,5.9,7.53,8.72,11.38a4.94,4.94,0,0,1,.9,3.37c-1.95,10.73,5.07,19.58,16,20,.34.05.67.12,1,.2L206.3,409.2l-25.86-16.92c6.27-5.57,12-10.66,17.73-15.77,5.51-4.9,11-9.83,16.54-14.7,1.2-1.06,1.3-2,.58-3.47C211.7,351.09,208.21,343.79,204.61,336.34Z" transform="translate(-42.66 -68.25)"/><path class="cls-2" d="M118.48,307A16.42,16.42,0,0,0,131.31,291c.11-2.91,2.65-4.39,5.06-2.78,14.21,9.44,28.65,18.58,41.22,30.25,1.77,1.64,2.25,2.92.09,4.66a36.68,36.68,0,0,0-4.74,4.5,4.74,4.74,0,0,1-5.92,1.13c-15.94-7-31.82-14.11-47.72-21.19A7,7,0,0,1,118.48,307Z" transform="translate(-42.66 -68.25)"/><path class="cls-2" d="M142.94,241.31c-2.37,1.06-4.23,2-6.16,2.69a2.39,2.39,0,0,1-1.93-.47q-9.52-7.83-18.94-15.78a3,3,0,0,1-.71-1.93c-.09-2,0-4,0-6.31,2.35,1.81,4.69,3.68,7.09,5.45,6.12,4.51,12.29,8.94,18.38,13.48A15.34,15.34,0,0,1,142.94,241.31Z" transform="translate(-42.66 -68.25)"/><path class="cls-2" d="M124.15,264.47,95.52,245.76c3.16-1.15,6-2.26,8.91-3.19a2.46,2.46,0,0,1,1.93.58q9,7.35,17.78,14.86a3.19,3.19,0,0,1,.77,2.27A28.55,28.55,0,0,1,124.15,264.47Z" transform="translate(-42.66 -68.25)"/><path class="cls-2" d="M192.25,333.8l5.94,6.87-.33.5-9.2-3.53Z" transform="translate(-42.66 -68.25)"/><path class="cls-3" d="M294.87,199.17c-.7,1.7-1.07,2.88-1.65,3.94-1.68,3-3.74,4.08-6.84,2.73-4.47-1.93-8.72-4.34-13.07-6.55l.2-.92Z" transform="translate(-42.66 -68.25)"/><path class="cls-2" d="M257.54,294.41c-6-4.83-11.86-9.66-17.82-14.4-7.06-5.63-14.21-11.16-21.24-16.84a3.89,3.89,0,0,1-1.32-2.88,150.4,150.4,0,0,1,8.52-37.75c3.31-9.13,7.22-18,13.83-25.33,1.38-1.53.42-2.35-.66-3.25l-10.39-8.7.15-.67h10.07c14.62,0,29.24,0,43.86.1,5.51,0,10.88,1.26,15.29,4.77,1.87,1.48,3,3.86,4.58,5.77.54.65,1.29,1.48,2,1.58,5.72.72,11.23,2.12,15.88,5.64,6.93,5.23,7.82,12.41,6,20.31-.1.46-.27.91-.45,1.51-2.52-3.73-6.2-5.06-10.3-5.47-9.48-1-18.2,1.6-26.43,6.07a15.74,15.74,0,0,0-4.21,3.8c5.15-3.29,10.46-5.91,16.77-5.95-4.13,4-7.26,8.54-8.4,14.29-1.24,6.27.64,12,3.4,17.36s6.07,10.73,9.32,16.39l-2.13,1.7-24.92,19.9c-1.24,1-2.17,1.5-3.94.64C269.32,290.21,263,290.81,257.54,294.41Zm37.33-95.24-21.36-.8-.2.92c4.35,2.21,8.6,4.62,13.07,6.55,3.1,1.35,5.16.3,6.84-2.73A38.8,38.8,0,0,0,294.87,199.17Z" transform="translate(-42.66 -68.25)"/></g><g id="Layer_6" data-name="Layer 6"><path class="cls-1" d="M229.3,68.25v72.21H216.82V137l-5.67,3.51H188.77l-9.39-13.83V68.25h12.48v56l3,4.54h19.91l2.06-2.06V68.25Z" transform="translate(-42.66 -68.25)"/><path class="cls-1" d="M251.07,68.25h31.25L289.44,79,281,87.23l-5-7.32H255.92l-1.86,2V93.94l3.09,4.54h26.1L291.5,111v20.73L283,140.46H247L241,131.79l8.15-8.46,4,5.47h24.75l1.14-.93V113L277,110.13h-26.1l-9.28-13.82V78.16Z" transform="translate(-42.66 -68.25)"/><path class="cls-1" d="M350.81,68.25v72.21H338.33V109.62H317.7v30.84H305.42V86.72l17.85-18.47ZM317.7,98h20.63v-18H327.81L317.7,90.33Z" transform="translate(-42.66 -68.25)"/><path class="cls-1" d="M197.87,144.88v3.64H192v15.27h5.86v3.63H182.29v-3.63h5.82V148.52h-5.82v-3.64Z" transform="translate(-42.66 -68.25)"/><path class="cls-1" d="M217.19,144.88v22.54h-3.9v-7.08l-7.5-11.17h-.26v18.25h-3.89V144.88h6.08l5.57,8.83v-8.83Z" transform="translate(-42.66 -68.25)"/><path class="cls-1" d="M220.31,144.88h16.81v3.64h-8.57l2.13,1.9v17h-3.9v-16.1l-.93-2.8h-5.54Z" transform="translate(-42.66 -68.25)"/><path class="cls-1" d="M255.47,144.88v3.64H244.39l-.58.65v5.05h7.44v3.64h-7.44v4.51l.94,1.42h10.72v3.63H242.82l-2.9-4.31V147.94l3-3.06Z" transform="translate(-42.66 -68.25)"/><path class="cls-1" d="M271.38,144.88l3.76,5.51v3.77l-3,3.06,3,4.34v5.86h-3.89v-5.18L268.32,158h-3.16l-1.7-1.07v10.53h-3.9V144.88Zm-7.92,9.44H270l1.26-1.29v-1.87l-1.84-2.64h-6Z" transform="translate(-42.66 -68.25)"/><path class="cls-1" d="M282.77,144.88v17.46l1,1.45h6.8v-2.36h3.89v6H281.81L278.88,163v-18.1Z" transform="translate(-42.66 -68.25)"/><path class="cls-1" d="M301.22,144.88h9.7l2.83,4.32v15.13l-2.93,3.09h-9.66l-2.93-4.31V148Zm.91,17.52.93,1.39h6.18l.61-.65V149.91l-.93-1.39h-6.21l-.58.65Z" transform="translate(-42.66 -68.25)"/><path class="cls-1" d="M321,144.88h9.66l2.61,3.93-2.58,2.71-2-3h-6.25l-.58.64v13.17l.94,1.42H329l2.28-2.29,2,3-2.77,2.89h-9.66L318,163.11v-15.2Z" transform="translate(-42.66 -68.25)"/><path class="cls-1" d="M353.16,144.88,344.37,154l8.95,13.46H349l-7.41-10.82-1.77,1.74v9.08H336V144.88h3.9v8.22l8.11-8.22Z" transform="translate(-42.66 -68.25)"/></g><g id="Layer_5" data-name="Layer 5"><path class="cls-3" d="M167.65,266.71c-.26,1.12-.64,3.18-1.27,5.16a2.64,2.64,0,0,0,.79,3.29q11.4,9.93,22.67,20a2.58,2.58,0,0,0,3.4.23c10.38-5.77,23-.85,26.3,10.46.79,2.67,1.8,3.16,4.47,2.93,10.36-.91,20.75-1.5,31.13-2.1a3.14,3.14,0,0,0,3.25-2.3c1.57-4,5.79-6.78,9.54-6.51a10.31,10.31,0,0,1,9.25,7.94,9.77,9.77,0,0,1-5.65,11.11c-4.1,1.92-9.54.71-11.77-3.13-1.48-2.57-3.12-2.92-5.84-2.69-10.28.88-20.58,1.45-30.87,2.1-1.69.11-2.61.42-3.25,2.48-.89,2.86-2.73,5.48-4.45,8-.81,1.18-1,1.87-.13,3q7.31,9.29,14.49,18.68a2.38,2.38,0,0,0,3.16,1c4-1.33,7.49-.11,10.23,2.95a9.05,9.05,0,0,1,1.89,10,9.49,9.49,0,0,1-8.82,6.43c-7.68.25-12.48-7.78-9.48-13.64a3.67,3.67,0,0,0-.51-4.65c-4.88-6.07-9.55-12.33-14.43-18.4a3.29,3.29,0,0,0-2.93-.85,17.44,17.44,0,0,1-16.32-1.7c-1.25-.79-2.07-.52-3.06.46q-5.74,5.67-11.61,11.19a2.55,2.55,0,0,0-.68,3.51c1.93,3.9,1.13,7.56-1.73,10.66s-6.27,4.22-10.27,2.83a10,10,0,0,1-7-9c-.6-6.13,6-11.7,12-10a4.77,4.77,0,0,0,5.48-1.48c3.42-3.59,7-7,10.64-10.39,1.18-1.1,1.44-2,.52-3.45a17.6,17.6,0,0,1-1.92-15.64,3.19,3.19,0,0,0-.77-2.74Q172.61,292.09,160.82,282a3.09,3.09,0,0,0-2.79-.21c-7.07,3.6-14.54,2.93-20.61-2.25a2.57,2.57,0,0,0-3.62-.29l-.09.08c-2.77,1.89-5.57,3.72-8.38,5.53-1.16.76-1.74,1.45-1.17,3,1.39,3.91.11,7.43-2.78,10.06s-6.33,3.59-10.23,2a9.62,9.62,0,0,1-6.39-8.86c-.22-7.66,7.8-12.44,13.68-9.41a4.11,4.11,0,0,0,5-.43c2.56-1.88,5.27-3.55,7.95-5.25,1.3-.82,1.81-1.63,1.08-3.25a16.68,16.68,0,0,1,0-14.12c.7-1.58.28-2.44-.89-3.42q-12.5-10.37-24.92-20.8c-1.14-1-1.87-.8-3,.17-4.68,4.09-10,5.36-15.87,2.91a14.4,14.4,0,0,1-9.27-12.72c-.68-8.13,5.51-15.95,15.16-16.14,1.64,0,2.11-.43,2.39-2q2.5-14.2,5.29-28.35a2.33,2.33,0,0,0-1.39-3h0c-4.37-2.45-6.28-7.08-4.88-11.48s6.06-7.59,10.13-7.16a10.53,10.53,0,0,1,9.37,9.35c.42,3.92-2.42,8.29-6.72,9.92a3.06,3.06,0,0,0-2.25,2.59q-2.67,14.69-5.45,29.35a2.66,2.66,0,0,0,1.24,3.12c5.94,4.18,8.36,9.77,6.48,17a3.53,3.53,0,0,0,1.14,2.9q11.2,9.55,22.6,18.88c3.89,3.19,3.93,3.1,8.13.46a17,17,0,0,1,17.91-.67A19,19,0,0,1,167.65,266.71ZM202.82,322c6.66,0,11.23-4.28,11.24-10.53,0-6.46-4.75-11.13-11.33-11.15s-11.34,4.23-11.36,10.39C191.37,317.35,196.07,322,202.82,322Zm-53.5-45.39c6.67,0,11.29-4.26,11.3-10.46a10.86,10.86,0,0,0-10.49-11.22c-.25,0-.51,0-.76,0-6.84,0-11.41,4.21-11.44,10.59S142.72,276.59,149.32,276.61Z" transform="translate(-42.66 -68.25)"/></g></svg>